HIERARCHY
ROOT Hips
{
    OFFSET 0.000000 0.000000 0.000000
    CHANNELS 6 Xposition Yposition Zposition Zrotation Xrotation Yrotation
    JOINT Spine
    {
        OFFSET -0.000000 14.517291 0.000000
        CHANNELS 3 Zrotation Xrotation Yrotation
        JOINT Spine1
        {
            OFFSET -0.000000 37.558300 0.000000
            CHANNELS 3 Zrotation Xrotation Yrotation
            JOINT Neck
            {
                OFFSET -0.000000 37.404057 3.400369
                CHANNELS 3 Zrotation Xrotation Yrotation
                JOINT Head
                {
                    OFFSET -0.000000 24.785618 -3.540803
                    CHANNELS 3 Zrotation Xrotation Yrotation
                    End Site
                    {
                        OFFSET -0.000000 35.408028 0.000000
                    }
                }
            }
            JOINT LeftShoulder
            {
                OFFSET 6.992933 33.973492 -0.192664
                CHANNELS 3 Zrotation Xrotation Yrotation
                JOINT LeftArm
                {
                    OFFSET 21.527611 0.000000 0.000000
                    CHANNELS 3 Zrotation Xrotation Yrotation
                    JOINT LeftForeArm
                    {
                        OFFSET 56.353916 0.000000 0.000000
                        CHANNELS 3 Zrotation Xrotation Yrotation
                        JOINT LeftHand
                        {
                            OFFSET 47.774071 0.000000 0.000000
                            CHANNELS 3 Zrotation Xrotation Yrotation
                            End Site
                            {
                                OFFSET 26.556021 0.000000 0.000000
                            }
                        }
                    }
                }
            }
            JOINT RightShoulder
            {
                OFFSET -7.065357 33.973492 -0.192664
                CHANNELS 3 Zrotation Xrotation Yrotation
                JOINT RightArm
                {
                    OFFSET -21.527611 0.000000 0.000000
                    CHANNELS 3 Zrotation Xrotation Yrotation
                    JOINT RightForeArm
                    {
                        OFFSET -56.353916 0.000000 0.000000
                        CHANNELS 3 Zrotation Xrotation Yrotation
                        JOINT RightHand
                        {
                            OFFSET -47.774071 0.000000 0.000000
                            CHANNELS 3 Zrotation Xrotation Yrotation
                            End Site
                            {
                                OFFSET -26.556021 0.000000 0.000000
                            }
                        }
                    }
                }
            }
        }
    }
    JOINT LeftUpLeg
    {
        OFFSET 17.704014 0.000000 0.000000
        CHANNELS 3 Zrotation Xrotation Yrotation
        JOINT LeftLeg
        {
            OFFSET -0.000000 -81.181816 0.000000
            CHANNELS 3 Zrotation Xrotation Yrotation
            JOINT LeftFoot
            {
                OFFSET -0.000000 -62.821102 0.000000
                CHANNELS 3 Zrotation Xrotation Yrotation
                JOINT LeftToeBase
                {
                    OFFSET -0.000000 -11.507608 26.556021
                    CHANNELS 3 Zrotation Xrotation Yrotation
                    End Site
                    {
                        OFFSET -0.000000 0.000000 7.081605
                    }
                }
            }
        }
    }
    JOINT RightUpLeg
    {
        OFFSET -17.704014 0.000000 0.000000
        CHANNELS 3 Zrotation Xrotation Yrotation
        JOINT RightLeg
        {
            OFFSET -0.000000 -81.181816 0.000000
            CHANNELS 3 Zrotation Xrotation Yrotation
            JOINT RightFoot
            {
                OFFSET -0.000000 -62.821102 0.000000
                CHANNELS 3 Zrotation Xrotation Yrotation
                JOINT RightToeBase
                {
                    OFFSET -0.000000 -11.507608 26.556021
                    CHANNELS 3 Zrotation Xrotation Yrotation
                    End Site
                    {
                        OFFSET -0.000000 0.000000 7.081605
                    }
                }
            }
        }
    }
}
MOTION
Frames:    11
Frame Time:    0.008333
22.758944    162.985718    -15.909282    2.121608    0.546222    -50.651657    1.411364    -2.442397    0.897753    2.030285    -0.966956    0.306538    15.265897    -2.145951    14.430699    -9.544272    7.055139    11.692300    11.925392    -0.720429    -17.351225    -9.126495    -16.481890    -39.553650    7.805456    -38.396435    -23.974155    -26.676533    -27.279913    -46.131588    -8.221212    2.930299    -1.225378    35.356106    5.651412    78.534927    9.047938    -1.039968    104.455254    3.819184    -12.037532    19.434320    12.142613    -10.032078    1.152631    -10.202686    11.088020    -1.629547    -5.024207    -2.450799    40.956394    0.000000    0.000000    0.000000    -16.511240    4.959412    -8.737066    4.431522    12.097934    -9.632202    16.498503    -1.329215    -14.098145    0.000000    0.000000    0.000000    
22.924276    162.999512    -15.690926    2.142283    0.526497    -50.588413    1.393389    -2.373978    0.889302    2.095407    -1.001676    0.305200    15.257586    -2.136112    14.412144    -9.586686    7.058843    11.672610    11.926439    -0.687109    -17.400280    -9.125661    -16.513559    -39.593895    7.826465    -38.423294    -23.963112    -26.661692    -27.310915    -46.140186    -8.235546    2.930094    -1.263163    35.340305    5.628451    78.541916    9.015219    -1.090361    104.436462    3.859284    -12.032592    19.481825    12.057503    -10.164114    1.122053    -10.311866    11.341189    -1.685685    -4.912188    -2.551459    40.978344    0.000000    0.000000    0.000000    -16.667631    4.887403    -8.696706    4.453115    12.260949    -9.652349    16.680695    -1.218431    -14.191620    0.000000    0.000000    0.000000    
23.087626    163.009262    -15.477519    2.165352    0.514096    -50.503662    1.385887    -2.331696    0.842427    2.096280    -0.993475    0.289582    15.294144    -2.156456    14.396039    -9.597795    7.073748    11.647109    11.994640    -0.683543    -17.422855    -9.115376    -16.520273    -39.630184    7.878253    -38.450386    -23.937010    -26.657022    -27.334330    -46.144440    -8.186622    2.907446    -1.251622    35.287937    5.600206    78.518387    8.997684    -1.201171    104.473877    3.944957    -12.111716    19.488171    11.973836    -10.316269    1.156117    -10.402461    11.619343    -1.739147    -4.820574    -2.652709    40.934513    0.000000    0.000000    0.000000    -16.809952    4.831624    -8.686585    4.467334    12.391960    -9.731753    16.870634    -1.087779    -14.238532    0.000000    0.000000    0.000000    
23.261694    163.017654    -15.261355    2.179263    0.504901    -50.430202    1.375409    -2.268444    0.797033    2.136655    -1.001209    0.275358    15.307702    -2.187762    14.392615    -9.616930    7.113464    11.638783    12.025436    -0.697776    -17.445808    -9.106982    -16.503101    -39.660454    7.970891    -38.488033    -23.894285    -26.659397    -27.367392    -46.120102    -8.186738    2.878477    -1.254080    35.321110    5.565869    78.524261    8.989506    -1.207037    104.447304    3.933899    -12.102569    19.505032    11.919931    -10.462885    1.214120    -10.535106    11.911058    -1.801536    -4.718625    -2.766959    40.888588    0.000000    0.000000    0.000000    -16.950130    4.760273    -8.700809    4.470010    12.555717    -9.777931    17.057350    -0.949947    -14.276651    0.000000    0.000000    0.000000    
23.439047    163.033051    -15.029451    2.192331    0.509889    -50.372818    1.350791    -2.198060    0.787230    2.239830    -1.041267    0.274254    15.280249    -2.187441    14.370157    -9.632482    7.101861    11.617869    12.002065    -0.733264    -17.506002    -9.100830    -16.485010    -39.668221    7.964068    -38.538780    -23.940796    -26.623615    -27.440145    -46.110531    -8.212852    2.884678    -1.294656    35.313156    5.538264    78.539192    8.949246    -1.276875    104.441071    3.938847    -12.116442    19.516821    11.878003    -10.603244    1.296912    -10.666253    12.187661    -1.879957    -4.612908    -2.869016    40.845413    0.000000    0.000000    0.000000    -17.086439    4.678816    -8.712515    4.464793    12.709028    -9.830017    17.307896    -0.781111    -14.311707    0.000000    0.000000    0.000000    
23.625917    163.046890    -14.805099    2.228884    0.537084    -50.327129    1.344280    -2.178036    0.756820    2.269066    -1.027390    0.264194    15.363480    -2.173341    14.375232    -9.713167    7.074986    11.602128    12.055644    -0.735510    -17.510954    -9.087101    -16.520332    -39.713852    8.002656    -38.596207    -23.947620    -26.638088    -27.482933    -46.145599    -8.180927    2.823087    -1.279536    35.350712    5.488908    78.495850    8.957335    -1.280377    104.460251    3.988122    -12.125948    19.523178    11.829410    -10.790963    1.514454    -10.750190    12.507039    -1.976674    -4.522904    -2.966368    40.722443    0.000000    0.000000    0.000000    -17.233614    4.552469    -8.705232    4.488384    12.881527    -9.886034    17.523584    -0.622976    -14.345298    0.000000    0.000000    0.000000    
23.822201    163.073059    -14.590799    2.261346    0.596659    -50.292198    1.338963    -2.137888    0.769990    2.352805    -1.069020    0.270383    15.375260    -2.218208    14.344478    -9.725878    7.118139    11.564487    12.077924    -0.751945    -17.568857    -9.064875    -16.483273    -39.744450    8.105659    -38.643608    -23.944635    -26.619501    -27.521261    -46.160378    -8.179806    2.794068    -1.348966    35.405067    5.460474    78.509811    8.903063    -1.294566    104.418655    3.888093    -12.074671    19.648941    11.817310    -10.998680    1.701697    -10.849659    12.819084    -2.097973    -4.435762    -3.046091    40.661598    0.000000    0.000000    0.000000    -17.353508    4.395514    -8.688350    4.506989    13.051534    -9.955053    17.760637    -0.413183    -14.390187    0.000000    0.000000    0.000000    
24.008774    163.101929    -14.373273    2.285420    0.667507    -50.265644    1.350188    -2.126526    0.755190    2.390871    -1.073979    0.265910    15.445170    -2.252582    14.347105    -9.730999    7.146930    11.552501    12.154467    -0.781349    -17.576138    -9.116741    -16.565151    -39.812244    8.081261    -38.634357    -23.982868    -26.582367    -27.526226    -46.166809    -8.109083    2.761912    -1.355745    35.410339    5.399655    78.489716    8.895988    -1.304862    104.395470    3.902070    -12.067904    19.670208    11.827371    -11.205474    1.944868    -10.939672    13.154029    -2.315317    -4.353817    -3.144874    40.625912    0.000000    0.000000    0.000000    -17.461706    4.233649    -8.707703    4.494816    13.238522    -9.968466    18.047976    -0.188685    -14.413547    0.000000    0.000000    0.000000    
24.209126    163.137512    -14.154418    2.317349    0.773476    -50.248959    1.368099    -2.120677    0.749943    2.465394    -1.110156    0.265467    15.567159    -2.220054    14.352701    -9.864828    7.109800    11.528122    12.194510    -0.800409    -17.631149    -9.103689    -16.565073    -39.805359    8.108438    -38.688728    -24.051104    -26.573109    -27.579163    -46.178364    -8.076470    2.752256    -1.372421    35.474274    5.337165    78.468826    8.975679    -1.250436    104.406189    4.004972    -12.104667    19.576088    11.860267    -11.437315    2.036365    -11.069868    13.449483    -2.423831    -4.268117    -3.244430    40.655785    0.000000    0.000000    0.000000    -17.561773    4.035252    -8.745646    4.482989    13.427833    -9.980330    18.372416    0.084860    -14.418512    0.000000    0.000000    0.000000    
24.410652    163.170547    -13.963427    2.342357    0.909591    -50.252327    1.405005    -2.111378    0.749791    2.526867    -1.158198    0.266839    15.652682    -2.198216    14.354216    -9.900770    7.094823    11.513881    12.292338    -0.764619    -17.589050    -9.138851    -16.596184    -39.913479    8.174519    -38.749966    -24.097023    -26.586388    -27.626589    -46.183094    -8.003420    2.721542    -1.362615    35.434177    5.304175    78.450073    8.930002    -1.325646    104.399055    3.913195    -12.134323    19.558411    11.939643    -11.693356    2.210027    -11.196762    13.783227    -2.619721    -4.172085    -3.353673    40.706039    0.000000    0.000000    0.000000    -17.635727    3.807076    -8.753074    4.451540    13.623549    -10.044768    18.759499    0.396611    -14.355107    0.000000    0.000000    0.000000    
24.617603    163.210938    -13.752812    2.380335    1.033135    -50.265102    1.404993    -2.103110    0.760282    2.631539    -1.198911    0.272500    15.736570    -2.262955    14.355876    -9.958150    7.163215    11.493539    12.292103    -0.819289    -17.647078    -9.092630    -16.605350    -39.883320    8.167808    -38.780575    -24.189119    -26.624685    -27.636120    -46.203197    -7.976182    2.688182    -1.387515    35.507439    5.273582    78.444801    8.883410    -1.348614    104.400093    3.909064    -12.096974    19.596233    11.980997    -11.925006    2.233039    -11.328211    14.044540    -2.728925    -4.065146    -3.430130    40.805843    0.000000    0.000000    0.000000    -17.763615    3.586152    -8.791132    4.449114    13.814196    -10.086582    19.185900    0.731529    -14.236456    0.000000    0.000000    0.000000    
